<?xml version="1.0" ?><!DOCTYPE svg  PUBLIC '-//W3C//DTD SVG 1.1//EN'  'http://www.w3.org/Graphics/SVG/1.1/DTD/svg11.dtd'><svg enable-background="new 0 0 512 512" height="512px" id="Layer_1" version="1.1" viewBox="0 0 512 512" width="512px" xml:space="preserve" xmlns="http://www.w3.org/2000/svg" xmlns:xlink="http://www.w3.org/1999/xlink"><linearGradient gradientTransform="matrix(1 0 0 -1 -41.66 349.04)" gradientUnits="userSpaceOnUse" id="SVGID_1_" x1="85.4016" x2="489.6379" y1="305.298" y2="-98.938"><stop offset="0" style="stop-color:#11A4DC"/><stop offset="0.5051" style="stop-color:#0F94C9"/><stop offset="1" style="stop-color:#0C82B4"/></linearGradient><path d="M348.489,35.511H163.511c-70.692,0-128,57.308-128,128v184.978c0,70.693,57.308,128,128,128h184.978  c70.692,0,128-57.307,128-128V163.511C476.489,92.818,419.181,35.511,348.489,35.511z M380.538,193.161  c0.12,2.735,0.177,5.49,0.177,8.25c0,84.182-64.069,181.247-181.247,181.247c-35.971,0-69.452-10.538-97.651-28.621  c4.986,0.592,10.06,0.895,15.196,0.895c29.851,0,57.313-10.186,79.114-27.273c-27.872-0.511-51.394-18.934-59.506-44.24  c3.889,0.75,7.879,1.147,11.988,1.147c5.812,0,11.44-0.781,16.785-2.231c-29.145-5.862-51.104-31.603-51.104-62.462  c0-0.271,0-0.542,0.006-0.807c8.591,4.771,18.417,7.639,28.854,7.973c-17.093-11.421-28.338-30.922-28.338-53.02  c0-11.686,3.139-22.628,8.623-32.031c31.42,38.542,78.364,63.899,131.309,66.559c-1.09-4.67-1.651-9.53-1.651-14.516  c0-35.183,28.521-63.704,63.697-63.704c18.323,0,34.88,7.74,46.497,20.119c14.516-2.862,28.143-8.162,40.452-15.467  c-4.759,14.888-14.85,27.367-28.01,35.246c12.89-1.532,25.174-4.954,36.588-10.028C403.783,172.973,392.98,184.199,380.538,193.161z  " fill="url(#SVGID_1_)"/></svg>